<?xml version="1.0" encoding="utf-8"?>
<!-- Generator: Adobe Illustrator 16.0.0, SVG Export Plug-In . SVG Version: 6.00 Build 0)  -->
<!DOCTYPE svg PUBLIC "-//W3C//DTD SVG 1.1//EN" "http://www.w3.org/Graphics/SVG/1.1/DTD/svg11.dtd">
<svg version="1.1" id="Layer_1" xmlns="http://www.w3.org/2000/svg" xmlns:xlink="http://www.w3.org/1999/xlink" x="0px" y="0px"
	 width="36px" height="36px" viewBox="0 0 36 36" enable-background="new 0 0 36 36" xml:space="preserve">
<g>
	<path fill-rule="evenodd" clip-rule="evenodd" d="M7.062,19c0.657,0,1.354,0,2.016,0c0,0,0,8.878,8.922,8.878
		c8.906,0,8.906-8.878,8.906-8.878C26.906,9.976,18,9.976,18,9.976c0,0.728,0,0.728-0.007,2.227
		c-0.688-0.344-6.317-3.156-6.338-3.181c0.927-0.467,5.518-2.771,6.307-3.172c0.008,0,0.018,0,0.025,0c0,0.726,0,1.452,0,2.186
		C18.031,8.039,28.909,8.023,28.909,19C28.909,29.864,18,29.864,18,29.864S7.034,29.896,7.062,19z"/>
</g>
<text transform="matrix(1 0 0 1 10.876 22.3496)" font-family="'ArialMT'" font-size="12">10</text>
</svg>
