<?xml version="1.0" encoding="utf-8"?>
<!-- Generator: Adobe Illustrator 16.0.0, SVG Export Plug-In . SVG Version: 6.00 Build 0)  -->
<!DOCTYPE svg PUBLIC "-//W3C//DTD SVG 1.1//EN" "http://www.w3.org/Graphics/SVG/1.1/DTD/svg11.dtd">
<svg version="1.1" id="Layer_1" xmlns="http://www.w3.org/2000/svg" xmlns:xlink="http://www.w3.org/1999/xlink" x="0px" y="0px"
	 width="36px" height="36px" viewBox="0 0 36 36" enable-background="new 0 0 36 36" xml:space="preserve">
<g>
	<path d="M8.861,18.956c0.549,0,1.133,0,1.687,0c0,0,0,7.428,7.465,7.428c7.452,0,7.452-7.428,7.452-7.428
		c0-7.55-7.452-7.55-7.452-7.55c0,0.609,0,0.609-0.006,1.863c-0.575-0.288-5.286-2.641-5.303-2.662
		c0.776-0.391,4.617-2.318,5.277-2.654c0.007,0,0.015,0,0.021,0c0,0.607,0,1.214,0,1.829c0.037,0.002,9.138-0.011,9.138,9.173
		c0,9.09-9.127,9.09-9.127,9.09S8.837,28.073,8.861,18.956z"/>
</g>
<text transform="matrix(1 0 0 1 12.0508 22.7578)" font-family="'ArialMT'" font-size="10.0402">10</text>
</svg>
